# xmcd
#
# Track frame offsets:
#	200
#	10492
#	21440
#	33345
#	47225
#	79715
#	92297
#	107992
#	123542
#	134082
#
# Disc length: 1989 seconds
#
# Revision: 3
# Processed by: cddbd v1.4b42PL1 Copyright (c) Steve Scherf et al.
# Submitted via: CDmax 1.8
#
DISCID=8407c30a
DTITLE=Country Joe McDonald - Thinking Of Woody Guthrie
DYEAR=1900
DGENRE=
TTITLE0=Pastures Of Plenty
TTITLE1=Talkin' Dust Bolw
TTITLE2=Blowing Down That Dusty Road
TTITLE3=So Long It's Been Good To Know Yuh
TTITLE4=Tom Joad
TTITLE5=The Sinking Of The Reuben James
TTITLE6=Roll On Columbia
TTITLE7=Pretty Boy Floyd
TTITLE8=When The Curfew Blows
TTITLE9=This Land Is Your Land
EXTD=
EXTT0=
EXTT1=
EXTT2=
EXTT3=
EXTT4=
EXTT5=
EXTT6=
EXTT7=
EXTT8=
EXTT9=
PLAYORDER=
